<svg width="43" height="49" viewBox="0 0 43 49" fill="none" xmlns="http://www.w3.org/2000/svg">
<g opacity="0.1">
<path opacity="0.1" d="M42 46.8908V48H41.0324" stroke="#20263C" stroke-miterlimit="10"/>
<path opacity="0.1" d="M39.1714 48H2.89647" stroke="#20263C" stroke-miterlimit="10" stroke-dasharray="5.77 5.77"/>
<path opacity="0.1" d="M1.96759 48H1V46.8908" stroke="#20263C" stroke-miterlimit="10"/>
<path opacity="0.1" d="M1 44.7575V3.17401" stroke="#20263C" stroke-miterlimit="10" stroke-dasharray="5.77 5.77"/>
<path opacity="0.1" d="M1 2.10919V1H1.96759" stroke="#20263C" stroke-miterlimit="10"/>
<path opacity="0.1" d="M3.82537 1H40.1035" stroke="#20263C" stroke-miterlimit="10" stroke-dasharray="5.77 5.77"/>
<path opacity="0.1" d="M41.0324 1H42V2.10919" stroke="#20263C" stroke-miterlimit="10"/>
<path opacity="0.1" d="M42 4.23883V45.826" stroke="#20263C" stroke-miterlimit="10" stroke-dasharray="5.77 5.77"/>
</g>
<path d="M21.45 5.57L29.26 10.08L33.22 7.8L21.45 1L1.79 12.36L5.73 14.64L21.45 5.57Z" fill="#EDBC3D"/>
<path d="M37.1601 10.08L21.4501 19.15L13.6401 14.64L9.6901 16.92L21.4501 23.71L41.1201 12.36L37.1601 10.08Z" fill="#EDBC3D"/>
<path d="M4.95 25.3401L1 23.0601V36.6401L20.66 48.0001V43.4401L4.95 34.3601V25.3401Z" fill="#EDBC3D"/>
<path d="M1 18.4999L16.71 27.5699V36.5899L20.66 38.8799V25.2899L1 13.9399V18.4999Z" fill="#EDBC3D"/>
<path d="M34.0101 23.06V18.5L22.2401 25.29V48L26.1901 45.72V27.57L34.0101 23.06Z" fill="#EDBC3D"/>
<path d="M37.9501 16.2199V34.3599L30.1401 38.8799V43.4399L41.9101 36.6399V13.9399L37.9501 16.2199Z" fill="#EDBC3D"/>
</svg>
